<?xml version="1.0" encoding="UTF-8"?>
<svg id="Layer_1" data-name="Layer 1" xmlns="http://www.w3.org/2000/svg" viewBox="131.09 131.22 262.94 262.94">
  <defs>
    <style>
      .cls-1 {
        fill: #f14e23;
      }
    </style>
  </defs>
  <path class="cls-1" d="M283.03,327.14c-.15,0-.3,0-.45-.01-3.2-.19-5.93-2.4-6.77-5.5l-24.2-88.72-12.39,41.38c-.95,3.16-3.86,5.33-7.16,5.33h-46.41c-4.13,0-7.48-3.35-7.48-7.48s3.35-7.48,7.48-7.48h40.84l18.29-61.09c.95-3.17,3.86-5.33,7.16-5.33.03,0,.06,0,.09,0,3.34.04,6.24,2.29,7.12,5.51l25.25,92.58,10.94-27c1.14-2.82,3.89-4.67,6.93-4.67h37.18c4.13,0,7.48,3.35,7.48,7.48s-3.35,7.48-7.48,7.48h-32.15l-17.36,42.85c-1.15,2.83-3.9,4.67-6.93,4.67Z"/>
  <path class="cls-1" d="M262.56,394.16c-72.49,0-131.47-58.98-131.47-131.47s58.98-131.47,131.47-131.47,131.47,58.98,131.47,131.47-58.98,131.47-131.47,131.47ZM262.56,146.18c-64.24,0-116.51,52.27-116.51,116.52s52.27,116.51,116.51,116.51,116.51-52.27,116.51-116.51-52.27-116.52-116.51-116.52Z"/>
</svg>