<?xml version="1.0" encoding="UTF-8"?><svg xmlns="http://www.w3.org/2000/svg" viewBox="0 0 16.5 16.5"><defs><style>.cls-1{fill:#3597d3;}.cls-2{fill:none;stroke:#3597d3;stroke-linecap:round;stroke-linejoin:round;stroke-width:.75px;}</style></defs><g id="Layer_3"><path class="cls-1" d="M13.02,9.73c-1.57,0-2.86,1.19-3.04,2.71h1.06c.17-.91.97-1.6,1.93-1.6.11,0,.22.01.33.03v.71h1.39c.15,0,.26.12.26.26s-.12.26-.26.26h-1.39v1.39h1.39c.15,0,.26.12.26.26s-.12.26-.26.26h-1.39v.71c-.11.02-.22.03-.33.03-.96,0-1.76-.69-1.93-1.6h-1.06c.18,1.52,1.47,2.71,3.04,2.71,1.7,0,3.08-1.38,3.08-3.08s-1.38-3.08-3.08-3.08Z"/><path class="cls-2" d="M12.12,10.45V2.24h0c0-.9-2.53-1.62-5.64-1.62S.83,1.34.83,2.23h0v12.02"/><path class="cls-2" d="M.83,14.25h0c0,.89,2.53,1.6,5.64,1.6,2.33,0,4.32-.4,5.19-.97"/><ellipse class="cls-2" cx="6.47" cy="2.23" rx="5.64" ry="1.6"/></g><g id="Layer_2"><path class="cls-1" d="M3.5,13.21v-2.49h.81c.83,0,1.25.41,1.25,1.22,0,.38-.12.7-.35.93s-.54.35-.9.35h-.81s0,0,0,0ZM4,11.15v1.62h.27c.24,0,.42-.08.56-.22.14-.15.2-.35.2-.61s-.07-.44-.21-.58c-.14-.14-.32-.21-.55-.21h-.27ZM5.96,13.21v-2.49h.83c.26,0,.45.05.59.15s.21.25.21.43c0,.14-.04.25-.13.36s-.19.17-.32.21h0c.16.03.3.09.4.2.1.11.15.24.15.4,0,.23-.08.41-.23.54s-.36.2-.62.2h-.88ZM6.46,11.11v.62h.24c.11,0,.2-.03.27-.09s.1-.14.1-.24c0-.19-.13-.29-.39-.29h-.21ZM6.46,12.13v.68h.3c.13,0,.22-.03.3-.09s.11-.15.11-.26-.04-.19-.11-.25-.17-.09-.3-.09h-.29s0,0,0,0ZM8.54,12.78h1v.43h-1.56v-.19c0-.13.02-.25.07-.36s.11-.21.19-.3c.08-.09.2-.2.37-.33.15-.12.26-.23.32-.32.06-.09.09-.19.09-.3,0-.22-.11-.34-.35-.34-.2,0-.39.09-.58.26v-.46c.21-.14.43-.21.69-.21.24,0,.42.06.56.19.14.13.21.3.21.53,0,.13-.02.24-.06.34-.04.1-.1.19-.17.28-.07.09-.19.19-.36.32-.16.12-.27.21-.32.28s-.08.12-.08.17h0Z"/><path class="cls-1" d="M1.97,5.92h1.75v.26h-1.75v-.26ZM3.97,5.92v.26h2.49s-.26-.26-.59-.26h-1.91ZM6.96,5.92v.26h1.51l-.09-.26h-1.42ZM10.96,5.92h-1.41l-.09.26h1.5v-.26ZM1.97,6.43h1.75v.26h-1.75v-.26ZM3.97,6.7h2.79s-.03-.21-.09-.26h-2.7v.26ZM6.96,6.7h1.68l-.08-.26h-1.61v.26ZM10.96,6.7v-.26h-1.59l-.08.26h1.67ZM2.48,6.93h.76v.26h-.76v-.26ZM4.48,6.93h.76v.26h-.76v-.26ZM5.98,7.19h.76s.05-.14.05-.26h-.81v.26h0ZM7.47,6.93v.26h1.34l-.09-.26h-1.25ZM9.13,7.19h1.36v-.26h-1.27l-.09.26ZM2.48,7.44h.76v.26h-.76v-.26ZM4.48,7.71h1.94s.16-.14.21-.26h-2.15v.26ZM8.97,7.67l-.06-.22h-1.44v.26h.76v-.15l.05.15h1.4l.05-.15v.15h.76v-.26h-1.44l-.08.22ZM2.48,7.96h.76v.26h-.76v-.26ZM4.48,8.22h2.15c-.05-.13-.21-.26-.21-.26h-1.94v.26ZM7.47,7.96h.76v.26h-.76v-.26ZM9.6,7.96h-1.23l.09.26h1.05l.09-.26ZM9.71,7.96h.76v.26h-.76v-.26ZM2.48,8.47h.76v.26h-.76v-.26ZM4.48,8.47h.76v.26h-.76v-.26ZM6.74,8.47h-.76v.26h.81c0-.12-.05-.26-.05-.26ZM7.47,8.47h.76v.26h-.76v-.26ZM9.43,8.47h-.89l.09.26h.71l.09-.26ZM9.71,8.47h.76v.26h-.76v-.26ZM1.99,8.97h1.75v.26h-1.75v-.26ZM6.76,8.97h-2.79v.26h2.7c.05-.05.09-.26.09-.26ZM6.97,8.97h1.25v.26h-1.25v-.26ZM9.24,8.97h-.53l.09.26h.35l.09-.26ZM9.71,8.97h1.27v.26h-1.27v-.26ZM1.99,9.48h1.75v.26h-1.75v-.26ZM6.46,9.48h-2.49v.26h1.91c.34,0,.59-.26.59-.26ZM6.97,9.48h1.25v.26h-1.25v-.26ZM8.98,9.74l.09-.26h-.2l.09.26h.01ZM9.71,9.48h1.27v.26h-1.27v-.26Z"/></g></svg>