<?xml version="1.0" encoding="UTF-8"?><svg xmlns="http://www.w3.org/2000/svg" viewBox="0 0 16.5 16.5"><defs><style>.cls-1{fill:#3597d3;}.cls-2{fill:none;stroke:#3597d3;stroke-linecap:round;stroke-linejoin:round;stroke-width:.75px;}</style></defs><g id="Layer_3"><path class="cls-1" d="M13.02,9.73c-1.57,0-2.86,1.19-3.04,2.71h1.06c.17-.91.97-1.6,1.93-1.6.11,0,.22.01.33.03v.71h1.39c.15,0,.26.12.26.26s-.12.26-.26.26h-1.39v1.39h1.39c.15,0,.26.12.26.26s-.12.26-.26.26h-1.39v.71c-.11.02-.22.03-.33.03-.96,0-1.76-.69-1.93-1.6h-1.06c.18,1.52,1.47,2.71,3.04,2.71,1.7,0,3.08-1.38,3.08-3.08s-1.38-3.08-3.08-3.08Z"/><path class="cls-2" d="M12.12,10.45V2.24h0c0-.9-2.53-1.62-5.64-1.62S.83,1.34.83,2.23h0v12.02"/><path class="cls-2" d="M.83,14.25h0c0,.89,2.53,1.6,5.64,1.6,2.33,0,4.32-.4,5.19-.97"/><ellipse class="cls-2" cx="6.47" cy="2.23" rx="5.64" ry="1.6"/></g><g id="Layer_2"><path class="cls-1" d="M7.76,9.1l-1.89.62-1.65.73-.46.12c-.12.11-.24.22-.37.34-.15.13-.28.24-.39.32-.12.09-.29.26-.37.37-.13.16-.23.34-.28.47-.08.24-.04.48.11.71.19.29.58.58,1.03.78.23.1.62.23.91.3.48.12,1.42.26,1.94.28.1,0,.24,0,.25,0,.01,0,.09-.16.18-.35.32-.65.55-1.26.67-1.77.07-.31.13-.73.17-1.23.01-.14.01-.6,0-.76-.01-.26-.04-.47-.07-.67,0-.03,0-.06,0-.06,0,0,.02-.01.26-.08l-.05-.11h0s0,0,0,0h0ZM7.33,9.35s.06.44.07.72c0,.06,0,.1,0,.1-.01,0-.24-.14-.41-.24-.14-.09-.41-.27-.46-.3-.01-.01-.01-.01.1-.05.2-.07.67-.22.69-.22ZM6.37,9.67s.05.02.12.07c.29.18.7.41.87.48.05.02.06.01-.06.1-.26.18-.58.35-.98.53-.07.03-.13.06-.13.06,0,0,0-.04.02-.08.1-.36.15-.72.15-1.01q0-.14.01-.15s0,0,0,0h0ZM6.17,9.74s0,.33,0,.42c-.03.21-.07.4-.13.62-.02.05-.03.1-.03.1,0,0-.2-.18-.27-.26-.11-.13-.2-.26-.26-.38-.03-.06-.08-.19-.08-.19.02-.02.78-.31.78-.3h0ZM5.23,10.11s0,0,0,0c0,0,.01.03.02.05.05.12.15.31.24.42.1.13.22.27.33.36.03.03.07.06.07.06,0,0,.01,0-.22.1-.27.1-.56.21-.9.31-.08.03-.16.05-.24.08-.01,0,0,0,.03-.06.17-.26.42-.78.56-1.14.02-.06.05-.13.05-.14,0-.02.01-.03.03-.04.01,0,.02,0,.02,0h0ZM4.95,10.23s-.07.16-.14.3c-.14.27-.29.54-.49.86-.03.06-.07.11-.07.11,0,.01-.01,0-.03-.04-.05-.1-.09-.22-.11-.33-.02-.11-.02-.31,0-.43.02-.09.02-.09.06-.11.18-.09.78-.37.78-.36h0ZM7.41,10.33v.06c0,.32-.03.76-.08,1.08,0,.06-.02.1-.02.1,0,0-.04-.01-.09-.03-.21-.07-.45-.17-.66-.28-.14-.08-.34-.2-.33-.21,0,0,.06-.03.13-.07.28-.15.55-.3.78-.46.09-.06.22-.15.25-.18l.02-.02h0ZM3.87,10.75s0,.01,0,.06c0,.04-.01.11-.02.15-.01.21.02.36.13.57.03.06.05.11.05.11-.01,0-.96.29-1.25.37-.09.02-.17.05-.17.05,0,0-.01,0,0-.02.03-.21.19-.48.42-.72.15-.15.27-.24.47-.36.15-.08.37-.21.39-.21,0,0,0,0,0,0h0ZM6.1,11.15s.04.02.08.04c.31.18.73.34,1.1.43h.03s-.05.03-.05.03c-.19.11-.82.37-1.45.6-.09.03-.18.07-.2.08-.02,0-.03.01-.03.01s.03-.05.06-.11c.18-.33.36-.74.45-1.03.01-.03.02-.05.02-.05h0ZM5.87,11.23s-.01.03-.02.07c-.12.3-.29.63-.5,1-.05.09-.1.17-.1.17s-.04-.03-.1-.06c-.3-.19-.57-.41-.75-.64l-.03-.03.13-.04c.47-.13.86-.26,1.26-.43.06-.02.1-.04.1-.04ZM7.28,11.72s0,0,0,0c0,.03-.07.33-.13.54-.05.18-.09.32-.17.57-.03.11-.06.2-.07.2s-.01,0-.02,0c-.42-.08-.81-.18-1.16-.33-.1-.04-.24-.1-.25-.11,0,0,.08-.04.19-.09.65-.28,1.33-.61,1.56-.75.03-.02.05-.03.05-.03h0ZM4.02,11.83s-.18.26-.43.62c-.09.12-.19.27-.23.32-.04.05-.1.14-.13.19l-.06.09-.06-.05c-.08-.06-.21-.2-.27-.27-.12-.15-.21-.31-.24-.46-.02-.07-.02-.1,0-.11.02,0,.4-.1.76-.18.2-.05.43-.1.51-.12.08-.02.15-.04.15-.04h0ZM4.2,11.9l.05.05c.21.23.42.4.67.55.05.03.08.05.08.05,0,0-.88.32-1.29.46-.23.08-.41.14-.42.14s-.01,0-.03-.02l-.03-.02.04-.06c.13-.19.3-.41.67-.85l.25-.3h0ZM5.34,12.72s.06.02.14.05c.19.07.33.11.53.16.24.06.59.12.8.14.03,0,.05,0,.04.01-.01,0-.22.08-.37.12-.25.08-1,.3-1.61.47-.11.03-.21.06-.22.06-.01,0-.06-.01-.06-.02,0,0,.03-.05.08-.1.21-.25.41-.52.58-.78.05-.07.09-.13.09-.13h0ZM5.09,12.73s-.1.16-.28.44c-.08.12-.16.25-.19.3-.03.05-.07.12-.1.16l-.04.07h-.02c-.05-.02-.41-.15-.51-.19-.12-.05-.24-.1-.33-.15-.11-.06-.26-.15-.25-.16,0,0,.2-.05.43-.12.63-.17.97-.27,1.2-.34.04-.01.08-.02.08-.02h0ZM6.87,13.14h0s-.23.66-.31.86c-.02.05-.03.06-.04.06-.02,0-.36-.05-.56-.08-.36-.05-.95-.16-1.1-.19h-.03s.21-.06.21-.06c.46-.1.68-.16.9-.23.28-.09.56-.19.84-.32.04-.02.08-.04.09-.04h0Z"/><path class="cls-1" d="M5.81,4.69s-.54.18-.87.31c-.44.18-.79.35-1,.5-.08.06-.18.15-.19.19,0,.01,0,.03,0,.05l.19.18.46.15,1.09.19,1.24.21v-.11s0,0,0,0l-.16-.03-.03-.06c-.17-.3-.35-.67-.46-.92-.08-.19-.16-.42-.21-.58-.02-.1-.03-.1-.04-.1h0s0,0,0,0h0ZM5.79,4.76h0s0,.04.01.09c.02.2.07.39.14.6.05.16.05.15,0,.13-.15-.04-.8-.15-1.27-.22-.08-.01-.14-.02-.14-.02,0,0,.34-.19.49-.26.2-.09.73-.31.77-.32ZM4.41,5.4l.06.02c.3.1,1.07.25,1.49.28.05,0,.09,0,.09,0,0,0-.04.02-.09.05-.2.1-.43.23-.58.32-.05.03-.09.05-.09.05s-.04,0-.07-.01h-.06s-.14-.15-.14-.15c-.25-.24-.45-.43-.52-.5l-.07-.07ZM4.35,5.44l.2.25c.11.14.22.27.25.3.02.03.04.05.04.06,0,0-.29-.05-.44-.09-.16-.04-.22-.05-.32-.08l-.08-.03v-.02c0-.1.12-.24.33-.38,0,0,.02-.01.02-.01ZM6.07,5.79s.01.01.03.05c.05.11.2.4.24.45.01.02.03.02-.17-.01-.48-.08-.64-.1-.64-.11,0,0,.01-.01.03-.02.15-.08.3-.19.44-.3.03-.03.06-.05.07-.06,0,0,0,0,0,0Z"/><path class="cls-1" d="M3.76,5.67s-.03.05,0,.12c.02.05.07.1.13.16,0,0,.64.62.71.71.35.41.5.81.52,1.36,0,.35-.06.67-.23,1.03-.3.65-.93,1.37-1.89,2.16l.14-.05c.09-.07.22-.14.51-.3.67-.37,1.43-.71,2.36-1.06,1.34-.5,3.54-1.09,4.79-1.28l.13-.02-.02-.03c-.11-.18-.19-.29-.29-.4-.27-.34-.61-.62-1.02-.85-.56-.31-1.29-.56-2.2-.74-.17-.03-.55-.1-.86-.15-.66-.1-1.08-.17-1.54-.25-.17-.03-.42-.07-.58-.11-.09-.02-.25-.06-.38-.1-.1-.04-.25-.08-.28-.2h0ZM4.13,6.03s.02,0,.05.02c.05.02.12.04.21.06.06.02.13.03.19.05.09.02.16.04.16.04.01.01.15.47.2.65.02.07.03.12.03.12,0,0-.02-.02-.04-.06-.17-.29-.43-.59-.74-.83-.04-.03-.07-.05-.07-.06ZM4.84,6.22s.04,0,.08.01c.24.05.68.14.96.18.05,0,.08.02.08.02s-.02.01-.04.02c-.05.02-.24.14-.3.18-.16.11-.3.22-.4.32-.04.04-.08.08-.08.08,0,0,0-.02-.02-.05-.05-.2-.16-.49-.26-.7-.02-.03-.03-.06-.03-.07,0,0,0,0,0,0h0ZM6.08,6.46s.02.05.05.16c.05.21.08.44.07.66,0,.06,0,.12,0,.12h0s-.07-.01-.07-.01c-.15-.05-.4-.12-.61-.18-.12-.03-.22-.06-.22-.07,0,0,.18-.19.25-.25.14-.13.54-.43.55-.43h0ZM6.17,6.47s.59.1.86.15c.2.04.49.1.5.11,0,0-.02.02-.12.06-.38.17-.66.32-.94.51-.07.05-.13.09-.14.09s0-.04,0-.09c0-.27-.05-.55-.15-.78-.01-.02-.02-.04-.02-.05ZM7.69,6.77s-.01.12-.03.19c-.05.21-.19.53-.36.83-.03.05-.06.1-.06.1,0,0-.04-.02-.09-.05-.17-.1-.35-.19-.56-.27-.06-.02-.11-.04-.11-.05-.01,0,.45-.31.69-.46.19-.12.51-.29.51-.29ZM7.8,6.79s.27.07.41.11c.34.1.72.24.97.36l.1.05-.07.02c-.61.14-1.14.3-1.65.51-.04.02-.08.03-.08.03s.01-.03.03-.07c.15-.32.25-.66.28-.95,0-.03,0-.05.01-.05h0ZM5.21,7.39s.2.04.31.07c.16.05.51.16.51.17,0,0-.04.03-.08.07-.19.16-.37.32-.58.53-.06.06-.12.11-.12.11s0,0,0-.02c.03-.24.03-.55-.02-.86,0-.04,0-.07,0-.08ZM9.39,7.39s-.09.15-.15.24c-.09.12-.21.29-.5.64-.15.19-.32.4-.37.47-.06.07-.1.13-.11.13s-.02-.03-.04-.06c-.16-.24-.35-.45-.58-.64-.04-.04-.09-.07-.11-.09-.02-.01-.03-.02-.03-.02,0,0,.24-.11.43-.18.32-.13.76-.29,1.09-.39.17-.05.36-.11.36-.1h0ZM9.5,7.42s.04.02.08.04c.35.2.69.45.96.72.08.07.26.27.26.27,0,0-.07,0-.14.01-.6.05-1.37.17-2.11.35-.05.01-.09.02-.1.02s.05-.06.12-.12c.43-.42.63-.68.87-1.16.03-.07.06-.13.06-.13t0,0h0ZM6.31,7.75s.21.09.35.16c.13.06.32.17.33.18,0,0-.07.04-.15.08-.27.13-.5.26-.74.41-.07.04-.13.08-.13.08,0,0,0,0,.03-.08.13-.23.23-.51.29-.79,0-.02.01-.04.02-.04h0ZM6.13,7.78s-.04.18-.07.28c-.06.18-.16.41-.25.58-.02.04-.06.1-.08.13l-.04.06-.08-.08c-.09-.09-.17-.15-.27-.2-.04-.02-.07-.04-.07-.04,0-.01.24-.23.43-.39.13-.12.42-.34.42-.34h0ZM7.27,8.25l.07.05c.16.1.35.24.49.36.08.07.24.21.27.24l.02.02-.12.03c-.66.18-1.16.34-1.75.56-.07.02-.12.04-.13.04,0,0-.02,0,.13-.13.38-.35.71-.73.96-1.1l.05-.08h0ZM6.97,8.32s-.19.28-.31.43c-.14.19-.39.5-.56.7-.07.08-.13.15-.14.16,0,0,0-.02,0-.05,0-.17-.04-.36-.12-.51-.03-.07-.04-.08-.03-.09.03-.02.44-.26.71-.4.18-.09.45-.23.46-.23h0ZM5.16,8.76s.04.02.07.04c.09.05.17.11.25.17,0,0-.03.03-.08.07-.14.1-.34.25-.46.35-.13.1-.13.1-.12.08.09-.14.14-.23.19-.33.04-.09.09-.2.12-.3.01-.04.03-.07.03-.07h0ZM5.64,9.14s.02.01.05.07c.08.12.14.28.16.42v.03s-.19.08-.19.08c-.35.14-.67.27-.89.37-.06.03-.17.08-.24.11-.07.04-.13.06-.13.06s.04-.03.1-.07c.43-.31.8-.65,1.08-.99.03-.04.06-.07.06-.07h0s0,0,0,0ZM5.42,9.2s-.16.19-.27.3c-.28.28-.55.5-.89.72-.04.03-.08.05-.09.05-.01,0,0,0,.15-.17.09-.1.17-.19.25-.29.05-.07.06-.08.14-.14.21-.15.7-.48.7-.47Z"/></g></svg>