<?xml version="1.0" encoding="UTF-8"?><svg xmlns="http://www.w3.org/2000/svg" viewBox="0 0 16.5 16.5"><defs><style>.cls-1{fill-rule:evenodd;}.cls-1,.cls-2{fill:#3597d3;}.cls-3{fill:none;stroke:#3597d3;stroke-linecap:round;stroke-linejoin:round;stroke-width:.75px;}</style></defs><g id="Layer_3"><path class="cls-2" d="M13.02,9.73c-1.57,0-2.86,1.19-3.04,2.71h1.06c.17-.91.97-1.6,1.93-1.6.11,0,.22.01.33.03v.71h1.39c.15,0,.26.12.26.26s-.12.26-.26.26h-1.39v1.39h1.39c.15,0,.26.12.26.26s-.12.26-.26.26h-1.39v.71c-.11.02-.22.03-.33.03-.96,0-1.76-.69-1.93-1.6h-1.06c.18,1.52,1.47,2.71,3.04,2.71,1.7,0,3.08-1.38,3.08-3.08s-1.38-3.08-3.08-3.08Z"/><path class="cls-3" d="M12.12,10.45V2.24h0c0-.9-2.53-1.62-5.64-1.62S.83,1.34.83,2.23h0v12.02"/><path class="cls-3" d="M.83,14.25h0c0,.89,2.53,1.6,5.64,1.6,2.33,0,4.32-.4,5.19-.97"/><ellipse class="cls-3" cx="6.47" cy="2.23" rx="5.64" ry="1.6"/></g><g id="Layer_2"><path class="cls-1" d="M9.13,11.44c-.44-.01-.77.03-1.06.15-.08.03-.21.03-.22.14.04.04.05.11.09.17.07.11.18.25.28.33l.35.25c.21.13.45.21.66.34.12.08.24.17.36.25.06.04.1.11.17.14v-.02s-.05-.12-.09-.17l-.16-.16c-.16-.21-.35-.4-.57-.55-.17-.12-.56-.28-.63-.48h-.01c.12-.02.26-.07.38-.1.19-.05.35-.04.55-.09l.26-.08v-.05c-.1-.1-.17-.23-.27-.32-.28-.24-.58-.47-.9-.67-.17-.11-.39-.18-.57-.27-.07-.03-.17-.05-.21-.1-.1-.12-.15-.28-.22-.42l-.45-.94c-.1-.21-.16-.42-.28-.62-.56-.92-1.17-1.48-2.11-2.03-.2-.11-.44-.16-.7-.22l-.41-.02c-.09-.04-.17-.14-.25-.19-.31-.2-1.11-.62-1.34-.06-.15.35.22.7.34.88.09.12.21.27.28.41.04.09.05.19.09.29.09.24.17.5.28.73.06.11.13.23.2.34.04.06.12.09.14.18-.08.11-.08.27-.13.41-.2.61-.12,1.37.16,1.82.09.14.29.43.57.32.25-.1.19-.41.26-.68.02-.06,0-.11.04-.15h0s.22.46.22.46c.17.27.46.54.71.73.13.1.23.27.4.33v-.02h-.01s-.08-.07-.13-.11c-.1-.1-.21-.22-.28-.33-.23-.3-.43-.64-.61-.99-.09-.17-.16-.35-.23-.52-.03-.07-.03-.16-.09-.2-.08.12-.2.22-.26.37-.1.23-.11.52-.15.82-.02,0-.01,0-.02.01-.17-.04-.23-.22-.3-.37-.16-.38-.19-1-.05-1.45.04-.11.2-.47.14-.58-.03-.1-.14-.16-.2-.24-.07-.1-.15-.23-.2-.35-.13-.3-.2-.64-.34-.94-.07-.14-.18-.29-.27-.42-.1-.15-.22-.25-.3-.42-.03-.06-.07-.16-.02-.22.01-.04.03-.06.08-.07.07-.06.27.02.34.05.2.08.37.16.54.27.08.05.16.16.26.18h.11c.17.04.37.01.53.06.29.09.55.23.79.37.71.45,1.3,1.09,1.7,1.85.07.12.09.24.15.37.11.27.26.54.37.8.11.25.22.51.39.73.08.11.41.17.56.23.11.05.28.09.38.15.19.11.37.24.55.37.09.06.36.2.38.31h0ZM3.57,6.73c-.08,0-.15,0-.22.03h0s.01.01.01.01c.04.09.12.15.17.22l.13.26h.01c.08-.07.11-.15.11-.28-.03-.04-.04-.08-.07-.11-.03-.05-.1-.08-.15-.12h0Z"/></g></svg>