<?xml version="1.0" encoding="UTF-8"?><svg xmlns="http://www.w3.org/2000/svg" viewBox="0 0 16.5 16.5"><defs><style>.cls-1{fill:#3597d3;}.cls-2{fill:none;stroke:#3597d3;stroke-linecap:round;stroke-linejoin:round;stroke-width:.75px;}</style></defs><g id="Layer_3"><path class="cls-1" d="M13.02,9.73c-1.57,0-2.86,1.19-3.04,2.71h1.06c.17-.91.97-1.6,1.93-1.6.11,0,.22.01.33.03v.71h1.39c.15,0,.26.12.26.26s-.12.26-.26.26h-1.39v1.39h1.39c.15,0,.26.12.26.26s-.12.26-.26.26h-1.39v.71c-.11.02-.22.03-.33.03-.96,0-1.76-.69-1.93-1.6h-1.06c.18,1.52,1.47,2.71,3.04,2.71,1.7,0,3.08-1.38,3.08-3.08s-1.38-3.08-3.08-3.08Z"/><path class="cls-2" d="M12.12,10.45V2.24h0c0-.9-2.53-1.62-5.64-1.62S.83,1.34.83,2.23h0v12.02"/><path class="cls-2" d="M.83,14.25h0c0,.89,2.53,1.6,5.64,1.6,2.33,0,4.32-.4,5.19-.97"/><ellipse class="cls-2" cx="6.47" cy="2.23" rx="5.64" ry="1.6"/></g><g id="Layer_2"><path class="cls-1" d="M4.89,10.6c-1.51,0-2.71-1.23-2.71-2.71s1.23-2.71,2.71-2.71h3.17c1.51,0,2.71,1.23,2.71,2.71s-1.23,2.71-2.71,2.71h-3.17ZM8,9.63c.97,0,1.77-.8,1.77-1.77s-.8-1.77-1.77-1.77h-3.02c-.97,0-1.77.8-1.77,1.77s.8,1.77,1.77,1.77h3.02Z"/></g></svg>