<?xml version="1.0" encoding="UTF-8"?><svg xmlns="http://www.w3.org/2000/svg" viewBox="0 0 16.5 16.5"><defs><style>.cls-1{fill:#3597d3;}.cls-2{fill:none;stroke:#3597d3;stroke-linecap:round;stroke-linejoin:round;stroke-width:.75px;}</style></defs><g id="Layer_3"><path class="cls-1" d="M13.02,9.73c-1.57,0-2.86,1.19-3.04,2.71h1.06c.17-.91.97-1.6,1.93-1.6.11,0,.22.01.33.03v.71h1.39c.15,0,.26.12.26.26s-.12.26-.26.26h-1.39v1.39h1.39c.15,0,.26.12.26.26s-.12.26-.26.26h-1.39v.71c-.11.02-.22.03-.33.03-.96,0-1.76-.69-1.93-1.6h-1.06c.18,1.52,1.47,2.71,3.04,2.71,1.7,0,3.08-1.38,3.08-3.08s-1.38-3.08-3.08-3.08Z"/><path class="cls-2" d="M12.12,10.45V2.24h0c0-.9-2.53-1.62-5.64-1.62S.83,1.34.83,2.23h0v12.02"/><path class="cls-2" d="M.83,14.25h0c0,.89,2.53,1.6,5.64,1.6,2.33,0,4.32-.4,5.19-.97"/><ellipse class="cls-2" cx="6.47" cy="2.23" rx="5.64" ry="1.6"/></g><g id="Layer_2"><path class="cls-1" d="M9.96,10.12c-.05-.14-.17-.24-.33-.26-.07-.01-.16,0-.26.01-.18.04-.31.05-.4.05.36-.61.65-1.3.82-1.96.27-1.06.13-1.54-.04-1.76-.45-.58-1.11-.89-1.9-.9-.42,0-.8.08-.99.14-.18-.03-.37-.05-.58-.05-.38,0-.72.08-1.01.25-.16-.05-.42-.13-.71-.18-.7-.11-1.26-.03-1.67.26-.5.35-.73.96-.68,1.81.01.27.16,1.09.4,1.87.14.45.28.82.43,1.11.21.41.44.64.7.73.14.05.41.08.68-.15.03.04.08.08.14.12.08.05.17.09.27.11.35.09.67.06.95-.06,0,.05,0,.1,0,.14,0,.07,0,.13,0,.19.02.41.04.72.13.95,0,.01.01.03.02.05.04.13.11.34.28.5.18.17.4.22.6.22.1,0,.2-.01.28-.03.3-.06.64-.16.88-.51.23-.33.35-.83.37-1.61,0-.02,0-.04,0-.06,0-.01,0-.03,0-.04h.05s.01,0,.01,0c.3.01.68-.05.91-.16.18-.08.76-.39.62-.8ZM9.23,10.71c-.18.08-.47.14-.72.14-.12,0-.23-.01-.32-.04-.04.38-.13,1.08-.18,1.37-.09.55-.34.8-.9.92-.1.02-.18.03-.26.03-.54,0-.71-.43-.78-.6-.09-.21-.12-.92-.11-1.63-.2.18-.44.27-.72.27-.11,0-.23-.02-.36-.05-.04,0-.35-.09-.34-.29,0-.18.26-.24.36-.26.35-.07.37-.1.48-.24.02-.03.05-.06.08-.1,0,0,0,0,0-.01-.15,0-.31-.05-.44-.12-.09.1-.35.37-.62.7-.16.2-.32.25-.45.25-.05,0-.1,0-.14-.02-.35-.12-.68-.69-.99-1.69-.23-.76-.38-1.56-.39-1.82-.04-.77.16-1.31.59-1.62.36-.26.87-.33,1.5-.23.37.06.67.16.79.21.27-.18.59-.27.97-.27.2,0,.39.03.56.07.08-.04.5-.16,1-.16.73,0,1.32.29,1.73.81.1.13.15.34.15.63,0,.26-.05.59-.14.93-.19.73-.54,1.52-.97,2.17.06.05.26.13.81.01.18-.04.3,0,.33.1.07.2-.3.43-.51.53Z"/><path class="cls-1" d="M4.43,8.92c.05-.39.03-.74.02-.92,0-.05,0-.09,0-.11,0-.07-.02-1.17.62-1.82,0,0,.01-.01.02-.02-.39-.13-1.36-.38-1.95.04-.36.26-.53.74-.5,1.43.01.22.15.99.38,1.76.27.89.58,1.45.85,1.54.04.01.16.06.34-.16.25-.31.49-.57.6-.68-.03-.02-.05-.05-.08-.08-.25-.26-.36-.61-.31-.98Z"/><path class="cls-1" d="M5.67,9.47c.13-.29.29-.64.1-1.5-.04-.17-.12-.26-.26-.29-.31-.07-.74.16-.84.24,0,.02,0,.04,0,.07.01.19.03.55-.03.97-.04.3.05.58.25.79.16.16.36.25.57.25.02-.1.06-.2.11-.32l.02-.04c.02-.06.05-.11.07-.17ZM5.48,8.06s-.02,0-.03,0c-.06,0-.12-.05-.16-.1-.01-.02-.04-.06-.03-.09,0-.01,0-.03.03-.05.04-.03.11-.04.19-.03.1.01.2.06.19.13,0,.06-.1.13-.2.13Z"/><path class="cls-1" d="M5.84,10.29c-.06-.03-.09-.04-.17.04h0c-.05.06-.08.1-.12.14-.14.17-.2.23-.61.32-.08.02-.13.03-.16.05.03.02.09.05.15.06.3.07.72.08,1-.32.03-.05.02-.11.01-.14-.02-.07-.07-.13-.12-.15Z"/><path class="cls-1" d="M8.39,7.64c-.44-.06-.62.05-.69.15-.23.33.22,1.15.42,1.5.05.09.09.15.1.2.02.04.04.09.06.12.13-.29.1-.57.07-.86-.02-.14-.03-.28-.03-.42,0-.14.02-.26.04-.37.02-.11.03-.21.03-.32ZM8.14,7.89s-.07.06-.13.07c0,0-.02,0-.02,0-.09,0-.17-.07-.18-.12,0-.06.08-.1.18-.11.09-.01.19,0,.2.06,0,.03-.02.06-.05.1Z"/><path class="cls-1" d="M8.07,6.47c.36.42.53.88.55,1.03,0,.02,0,.04,0,.06,0,.16-.01.3-.04.43-.02.11-.03.22-.04.35,0,.12.01.25.03.39.04.33.08.71-.15,1.09,0,0,0,0,.01.01,0,.01.02.02.03.03.89-1.4,1.2-3.02.92-3.38-.36-.47-.88-.71-1.53-.72-.26,0-.49.03-.65.06.39.17.68.43.87.65Z"/><path class="cls-1" d="M8.48,10.26s-.02-.02-.03-.02c-.02,0-.03,0-.05.01-.1.03-.2.06-.19.32.03.02.14.06.37.05.21,0,.42-.05.55-.12.15-.07.26-.15.32-.21,0,0,0,0,0,0-.46.1-.79.08-.97-.04Z"/><path class="cls-1" d="M8.26,9.97c-.07-.09-.17-.21-.25-.4-.01-.03-.05-.09-.09-.17-.23-.42-.72-1.29-.41-1.74.14-.21.43-.29.85-.25-.06-.17-.2-.47-.45-.78-.3-.35-.83-.78-1.66-.79-.42,0-.76.12-1.02.38-.41.41-.52,1.07-.55,1.42.02-.01.04-.02.06-.03.1-.05.31-.14.54-.17.38-.04.63.13.71.48.2.93.02,1.34-.12,1.64-.02.06-.05.11-.07.16l-.02.04c-.04.11-.08.21-.1.29.1-.03.18,0,.23.03.11.05.21.16.25.3,0,.02.01.04.01.07,0,.01,0,.02,0,.04-.03.93.01,1.78.09,1.96.12.29.29.54.79.44.48-.1.65-.28.73-.74.06-.35.18-1.34.2-1.56-.02-.42.21-.51.33-.54-.02-.02-.04-.05-.06-.08Z"/></g></svg>