<?xml version="1.0" encoding="UTF-8"?><svg id="Layer_3" xmlns="http://www.w3.org/2000/svg" viewBox="0 0 16.5 16.5"><defs><style>.cls-1,.cls-2{fill:#3597d3;}.cls-3{fill:none;stroke:#3597d3;stroke-linecap:round;stroke-linejoin:round;stroke-width:.75px;}.cls-2{font-family:PlusJakartaSans-Regular, 'Plus Jakarta Sans';font-size:3.22px;font-variation-settings:'wght' 400;}</style></defs><path class="cls-1" d="M13.02,9.73c-1.57,0-2.86,1.19-3.04,2.71h1.06c.17-.91.97-1.6,1.93-1.6.11,0,.22.01.33.03v.71h1.39c.15,0,.26.12.26.26s-.12.26-.26.26h-1.39v1.39h1.39c.15,0,.26.12.26.26s-.12.26-.26.26h-1.39v.71c-.11.02-.22.03-.33.03-.96,0-1.76-.69-1.93-1.6h-1.06c.18,1.52,1.47,2.71,3.04,2.71,1.7,0,3.08-1.38,3.08-3.08s-1.38-3.08-3.08-3.08Z"/><path class="cls-3" d="M12.12,10.45V2.24h0c0-.9-2.53-1.62-5.64-1.62S.83,1.34.83,2.23h0v12.02"/><path class="cls-3" d="M.83,14.25h0c0,.89,2.53,1.6,5.64,1.6,2.33,0,4.32-.4,5.19-.97"/><ellipse class="cls-3" cx="6.47" cy="2.23" rx="5.64" ry="1.6"/><path class="cls-1" d="M6.34,4.76c-1.7,0-3.07,1.37-3.07,3.06s1.37,3.06,3.07,3.06,3.07-1.37,3.07-3.06-1.37-3.06-3.07-3.06ZM6.34,5.33c1.3,0,2.36,1.01,2.46,2.3h-.89s-.45.8-.45.8l-1.11-2.71-1,2.23h-1.47s0-.08,0-.13c0-1.38,1.1-2.49,2.47-2.49ZM6.34,10.31c-1.2,0-2.2-.86-2.42-2.01h1.66s.75-1.67.75-1.67l1.08,2.63.71-1.27h.68c-.08,1.3-1.15,2.33-2.46,2.33Z"/><polyline class="cls-3" points="8.52 9.76 9.18 9.76 9.18 14.3 3.5 14.3 3.5 10.81 3.5 9.76 4.21 9.76"/><text class="cls-2" transform="translate(4.58 13.59)"><tspan x="0" y="0">MI</tspan></text></svg>